<?xml version="1.0" standalone="no"?>
<!DOCTYPE svg PUBLIC "-//W3C//DTD SVG 20010904//EN"
 "http://www.w3.org/TR/2001/REC-SVG-20010904/DTD/svg10.dtd">
<svg version="1.0" xmlns="http://www.w3.org/2000/svg"
 width="64.000000pt" height="64.000000pt" viewBox="0 0 64.000000 64.000000"
 preserveAspectRatio="xMidYMid meet">

<g transform="translate(0.000000,64.000000) scale(0.100000,-0.100000)"
fill="#000000" stroke="none">
<path d="M220 555 l0 -45 100 0 100 0 0 45 0 45 -100 0 -100 0 0 -45z"/>
<path d="M272 448 c-20 -20 -14 -42 18 -73 l30 -29 35 34 c40 39 41 43 19 64
-11 11 -21 13 -33 7 -10 -6 -23 -6 -32 0 -19 12 -23 11 -37 -3z"/>
<path d="M320 276 c-10 -27 -11 -28 -24 -10 -11 14 -17 16 -27 7 -8 -6 -28
-13 -44 -16 -17 -2 -9 -3 17 -2 32 1 49 -2 52 -12 8 -20 24 -16 32 9 6 21 7
21 21 2 9 -10 17 -14 19 -9 2 6 23 10 47 8 23 -1 31 1 17 3 -14 3 -32 8 -40
11 -8 3 -19 5 -24 4 -4 -1 -14 6 -21 16 -13 17 -14 16 -25 -11z"/>
<path d="M210 180 c0 -6 45 -10 115 -10 70 0 115 4 115 10 0 6 -45 10 -115 10
-70 0 -115 -4 -115 -10z"/>
<path d="M210 130 c0 -6 45 -10 115 -10 70 0 115 4 115 10 0 6 -45 10 -115 10
-70 0 -115 -4 -115 -10z"/>
</g>
</svg>
